<svg width="16" height="15" viewBox="0 0 16 15" fill="none" xmlns="http://www.w3.org/2000/svg">
<g clip-path="url(#clip0_411_532)">
<path d="M15.2349 4.18417H15.2216C14.9647 4.1857 14.9249 3.97745 14.9204 3.88076V2.36854C14.9204 2.20711 14.7802 2.07629 14.6077 2.07629H9.97532C8.81306 2.07629 8.37946 2.47836 8.27188 2.60458L8.24235 2.64286L8.24212 2.64351L8.15048 2.76076C8.02743 2.91848 7.92009 2.85133 7.86853 2.7997L7.69321 2.59561L7.60649 2.49804C7.46071 2.3552 7.08079 2.07629 6.32774 2.07629H1.39251C1.21954 2.07629 1.07938 2.20711 1.07938 2.36854V3.86151C1.07938 4.12292 0.927275 4.17542 0.833994 4.18417H0.764619C0.688682 4.18854 0.511963 4.22967 0.511963 4.53308V11.6488C0.511963 11.8234 0.663604 11.9647 0.850635 11.9647H5.35485C6.79181 11.9647 7.41806 12.4704 7.60579 12.6644L7.7129 12.7883C7.7129 12.7883 8.00048 13.0917 8.30329 12.7883L8.3661 12.7196L8.36704 12.7191L8.4472 12.6316C8.44954 12.629 8.46876 12.6089 8.49665 12.5822C8.73642 12.3645 9.33571 11.9647 10.5076 11.9647H15.1494C15.3367 11.9647 15.4881 11.8234 15.4881 11.6488V4.46417C15.4881 4.20692 15.2886 4.18548 15.2349 4.18417ZM14.2229 10.5323C14.2229 10.6725 14.0975 10.7856 13.9414 10.7856H10.1223C8.76313 10.7856 8.26978 11.3587 8.26978 11.3587L8.2072 11.437L8.1779 11.4749C8.04829 11.6392 7.85751 11.4762 7.85657 11.4753L7.76868 11.3727C7.70353 11.2997 7.20431 10.7854 5.9961 10.7854H2.0586C1.90321 10.7854 1.77759 10.6721 1.77759 10.5321V2.94976C1.77759 2.80976 1.90321 2.69645 2.0586 2.69645H5.11556C7.38946 2.69645 7.60485 3.90198 7.61962 4.2522V9.52539C7.61962 9.90864 7.81532 9.98061 7.92571 9.99111H8.09001C8.20251 9.98061 8.38134 9.91826 8.38134 9.61923V4.18417H8.37946C8.39634 3.74558 8.57962 2.69623 9.9472 2.69623H13.9414C14.0975 2.69623 14.2229 2.80954 14.2229 2.94954V10.5323Z" fill="#241F20"/>
</g>
<defs>
<clipPath id="clip0_411_532">
<rect width="15" height="14" fill="white" transform="translate(0.5 0.5)"/>
</clipPath>
</defs>
</svg>
