<svg width="19" height="19" viewBox="0 0 19 19" fill="none" xmlns="http://www.w3.org/2000/svg">
<path d="M7.41158 7.2501C7.41158 7.2501 4.90991 7.52719 3.24108 7.71244C3.09066 7.73064 2.95766 7.83119 2.90779 7.98398C2.85791 8.13677 2.90779 8.2959 3.01862 8.39644C4.25837 9.52773 6.12116 11.2219 6.12116 11.2219C6.11958 11.2219 5.60974 13.6864 5.27091 15.3306C5.24241 15.4795 5.29624 15.637 5.42608 15.7312C5.55512 15.8254 5.72137 15.827 5.85199 15.7534C7.31183 14.9237 9.49841 13.6761 9.49841 13.6761C9.49841 13.6761 11.6858 14.9237 13.1432 15.7542C13.2762 15.827 13.4425 15.8254 13.5715 15.7312C13.7014 15.637 13.7552 15.4795 13.7259 15.3314C13.3871 13.6864 12.878 11.2219 12.878 11.2219C12.878 11.2219 14.7408 9.52773 15.9806 8.39881C16.0914 8.2951 16.1405 8.13598 16.0914 7.98398C16.0423 7.83198 15.9093 7.73144 15.7589 7.71402C14.0901 7.52719 11.5876 7.2501 11.5876 7.2501C11.5876 7.2501 10.5505 4.95585 9.85941 3.42635C9.7945 3.2894 9.65833 3.1936 9.49841 3.1936C9.33849 3.1936 9.20154 3.29019 9.13979 3.42635C8.44787 4.95585 7.41158 7.2501 7.41158 7.2501Z" fill="black"/>
</svg>
