<svg width="14" height="13" viewBox="0 0 14 13" fill="none" xmlns="http://www.w3.org/2000/svg">
<g clip-path="url(#clip0_411_1049)">
<path d="M7 12.1875C5.37555 12.1875 3.81763 11.5883 2.66897 10.5217C1.52031 9.45506 0.875 8.00842 0.875 6.5C0.875 4.99158 1.52031 3.54494 2.66897 2.47833C3.81763 1.41172 5.37555 0.8125 7 0.8125C8.62445 0.8125 10.1824 1.41172 11.331 2.47833C12.4797 3.54494 13.125 4.99158 13.125 6.5C13.125 8.00842 12.4797 9.45506 11.331 10.5217C10.1824 11.5883 8.62445 12.1875 7 12.1875ZM7 13C8.85652 13 10.637 12.3152 11.9497 11.0962C13.2625 9.87721 14 8.22391 14 6.5C14 4.77609 13.2625 3.12279 11.9497 1.90381C10.637 0.68482 8.85652 0 7 0C5.14348 0 3.36301 0.68482 2.05025 1.90381C0.737498 3.12279 0 4.77609 0 6.5C0 8.22391 0.737498 9.87721 2.05025 11.0962C3.36301 12.3152 5.14348 13 7 13Z" fill="black"/>
<path d="M7.81371 5.35275L5.80996 5.58594L5.73821 5.89469L6.13196 5.96212C6.38921 6.019 6.43996 6.10513 6.38396 6.34319L5.73821 9.16094C5.56846 9.88975 5.83008 10.2326 6.44521 10.2326C6.92208 10.2326 7.47596 10.0279 7.72708 9.74675L7.80408 9.40875C7.62908 9.55175 7.37358 9.60863 7.20383 9.60863C6.96321 9.60863 6.87571 9.45181 6.93783 9.17556L7.81371 5.35275ZM7.87496 3.65625C7.87496 3.87174 7.78277 4.0784 7.61868 4.23077C7.45458 4.38315 7.23202 4.46875 6.99996 4.46875C6.76789 4.46875 6.54533 4.38315 6.38124 4.23077C6.21715 4.0784 6.12496 3.87174 6.12496 3.65625C6.12496 3.44076 6.21715 3.2341 6.38124 3.08173C6.54533 2.92935 6.76789 2.84375 6.99996 2.84375C7.23202 2.84375 7.45458 2.92935 7.61868 3.08173C7.78277 3.2341 7.87496 3.44076 7.87496 3.65625Z" fill="black"/>
</g>
<defs>
<clipPath id="clip0_411_1049">
<rect width="14" height="13" fill="white"/>
</clipPath>
</defs>
</svg>
