<svg width="36" height="36" viewBox="0 0 36 36" fill="none" xmlns="http://www.w3.org/2000/svg">
<path d="M17.9999 29.7562L17.5499 29.3625C7.3124 21.0375 4.55615 18.1125 4.55615 13.3312C4.55615 9.39374 7.7624 6.24374 11.6436 6.24374C14.9061 6.24374 16.7624 8.09999 17.9999 9.50624C19.2374 8.09999 21.0937 6.24374 24.3562 6.24374C28.2937 6.24374 31.4437 9.44999 31.4437 13.3312C31.4437 18.1125 28.6874 21.0375 18.4499 29.3625L17.9999 29.7562ZM11.6436 7.70624C8.5499 7.70624 6.01865 10.2375 6.01865 13.3312C6.01865 17.4375 8.60615 20.1375 17.9999 27.8437C27.3937 20.1375 29.9812 17.4375 29.9812 13.3312C29.9812 10.2375 27.4499 7.70624 24.3562 7.70624C21.5437 7.70624 20.0249 9.39374 18.8437 10.7437L17.9999 11.7L17.1561 10.7437C15.9749 9.39374 14.4561 7.70624 11.6436 7.70624Z" fill="white"/>
</svg>
