<svg width="17" height="15" viewBox="0 0 17 15" fill="none" xmlns="http://www.w3.org/2000/svg">
<path d="M16.8973 7.07227C15.2967 3.97236 12.1281 1.875 8.49998 1.875C4.87184 1.875 1.70234 3.97383 0.102692 7.07256C0.0351768 7.20513 0 7.3516 0 7.50015C0 7.64869 0.0351768 7.79516 0.102692 7.92773C1.70323 11.0276 4.87184 13.125 8.49998 13.125C12.1281 13.125 15.2976 11.0262 16.8973 7.92744C16.9648 7.79487 17 7.6484 17 7.49985C17 7.35131 16.9648 7.20484 16.8973 7.07227ZM8.49998 11.7188C7.65941 11.7188 6.83772 11.4713 6.13881 11.0078C5.4399 10.5442 4.89517 9.88532 4.5735 9.11445C4.25182 8.34357 4.16766 7.49532 4.33165 6.67696C4.49563 5.85861 4.90041 5.1069 5.49478 4.51689C6.08915 3.92689 6.84643 3.52509 7.67085 3.36231C8.49527 3.19953 9.3498 3.28308 10.1264 3.60238C10.903 3.92169 11.5667 4.46242 12.0337 5.15619C12.5007 5.84996 12.75 6.66561 12.75 7.5C12.7503 8.05409 12.6405 8.6028 12.427 9.11477C12.2135 9.62673 11.9005 10.0919 11.5058 10.4837C11.1111 10.8755 10.6425 11.1862 10.1267 11.3982C9.61095 11.6101 9.05818 11.719 8.49998 11.7188ZM8.49998 4.6875C8.24709 4.69101 7.99582 4.72836 7.75299 4.79853C7.95316 5.06856 8.04921 5.40085 8.02374 5.73514C7.99826 6.06943 7.85294 6.3836 7.61412 6.62065C7.37531 6.85771 7.05882 7.00197 6.72205 7.02725C6.38528 7.05254 6.05053 6.95719 5.77851 6.7585C5.62361 7.32498 5.65157 7.92541 5.85846 8.47529C6.06534 9.02517 6.44073 9.49681 6.9318 9.82382C7.42286 10.1508 8.00486 10.3167 8.59589 10.2982C9.18692 10.2797 9.75722 10.0776 10.2265 9.7205C10.6958 9.36338 11.0405 8.86916 11.212 8.30742C11.3835 7.74567 11.3732 7.14468 11.1826 6.58904C10.992 6.03339 10.6306 5.55107 10.1494 5.20995C9.66818 4.86884 9.09131 4.68612 8.49998 4.6875Z" fill="black"/>
</svg>
