<svg width="16" height="16" viewBox="0 0 16 16" fill="none" xmlns="http://www.w3.org/2000/svg">
<g clip-path="url(#clip0_63_295)">
<path d="M13.961 5.3075C13.9355 5.2465 13.899 5.192 13.853 5.146L9.854 1.147C9.808 1.101 9.7535 1.0645 9.6925 1.039C9.632 1.0135 9.567 1 9.5 1H2.5C2.224 1 2 1.224 2 1.5C2 1.776 2.224 2 2.5 2H9V5.5C9 5.776 9.2235 6 9.5 6H13V14H3V3.5C3 3.224 2.776 3 2.5 3C2.224 3 2 3.224 2 3.5V14.5C2 14.7765 2.224 15 2.5 15H13.5C13.7765 15 14 14.7765 14 14.5V5.5C14 5.4335 13.9865 5.368 13.961 5.3075ZM10 2.707L12.293 5H10V2.707Z" fill="black"/>
</g>
<defs>
<clipPath id="clip0_63_295">
<rect width="16" height="16" fill="white"/>
</clipPath>
</defs>
</svg>
