<svg width="36" height="36" viewBox="0 0 36 36" fill="none" xmlns="http://www.w3.org/2000/svg">
<path d="M18 4.5C25.4559 4.5 31.5 10.5442 31.5 18C31.5 25.4559 25.4559 31.5 18 31.5C15.4356 31.5 12.9742 30.7827 10.8462 29.4507C9.97941 28.9082 9.17655 28.2685 8.45349 27.5454C7.72935 26.8212 7.08901 26.0169 6.54601 25.1485C5.2161 23.0217 4.5 20.5623 4.5 18C4.5 17.5887 4.51842 17.1796 4.55505 16.7734C4.61084 16.1545 5.15771 15.6982 5.77652 15.7539C6.39533 15.8097 6.85175 16.3566 6.79596 16.9755C6.76539 17.3145 6.75 17.6562 6.75 18C6.75 20.1374 7.3459 22.184 8.45374 23.9556C8.90646 24.6795 9.44052 25.3503 10.0446 25.9545C10.6477 26.5576 11.3173 27.0912 12.04 27.5435C13.8127 28.6532 15.8609 29.25 18 29.25C24.2132 29.25 29.25 24.2132 29.25 18C29.25 11.7868 24.2132 6.75 18 6.75C14.4041 6.75 11.0993 8.44921 8.99662 11.2529L13.1313 11.2531C13.7526 11.2531 14.2563 11.7568 14.2563 12.3781C14.2563 12.9477 13.833 13.4184 13.2839 13.4929L13.1313 13.5031H6.375C5.80545 13.5031 5.33477 13.0799 5.26028 12.5308L5.25 12.3781V5.62813C5.25 5.00682 5.75368 4.50313 6.375 4.50313C6.94455 4.50313 7.41524 4.92638 7.48973 5.47548L7.5 5.62813L7.4985 9.51522C10.0288 6.38405 13.8544 4.5 18 4.5ZM16.875 10.5C17.4443 10.5 17.9152 10.9235 17.9897 11.4724L18 11.625V18H21.375C21.996 18 22.5 18.504 22.5 19.125C22.5 19.6943 22.0765 20.1652 21.5275 20.2397L21.375 20.25H16.875C16.3057 20.25 15.8348 19.8265 15.7603 19.2775L15.75 19.125V11.625C15.75 11.004 16.254 10.5 16.875 10.5Z" fill="white"/>
</svg>
