<svg width="17" height="17" viewBox="0 0 17 17" fill="none" xmlns="http://www.w3.org/2000/svg">
<g clip-path="url(#clip0_63_266)">
<path d="M16.5041 8.5H0.56665" stroke="black" stroke-width="1.5" stroke-miterlimit="10" stroke-linecap="round" stroke-linejoin="round"/>
<path d="M8.50002 16.5042C12.9206 16.5042 16.5042 12.9206 16.5042 8.50002C16.5042 4.07944 12.9206 0.49585 8.50002 0.49585C4.07944 0.49585 0.49585 4.07944 0.49585 8.50002C0.49585 12.9206 4.07944 16.5042 8.50002 16.5042Z" stroke="black" stroke-width="1.5" stroke-miterlimit="10" stroke-linecap="round" stroke-linejoin="round"/>
<path d="M8.4999 16.5042C10.7298 16.5042 12.5374 12.9206 12.5374 8.50002C12.5374 4.07944 10.7298 0.49585 8.4999 0.49585C6.27005 0.49585 4.4624 4.07944 4.4624 8.50002C4.4624 12.9206 6.27005 16.5042 8.4999 16.5042Z" stroke="black" stroke-width="1.5" stroke-miterlimit="10" stroke-linecap="round" stroke-linejoin="round"/>
<path d="M15.3 4.46252H1.69995" stroke="black" stroke-width="1.5" stroke-miterlimit="10" stroke-linecap="round" stroke-linejoin="round"/>
<path d="M15.3 12.5375H1.69995" stroke="black" stroke-width="1.5" stroke-miterlimit="10" stroke-linecap="round" stroke-linejoin="round"/>
<path d="M8.5 16.5042V0.566711" stroke="black" stroke-width="1.5" stroke-miterlimit="10" stroke-linecap="round" stroke-linejoin="round"/>
</g>
<defs>
<clipPath id="clip0_63_266">
<rect width="17" height="17" fill="white"/>
</clipPath>
</defs>
</svg>
