<?xml version="1.0" standalone="no"?>
<!DOCTYPE svg PUBLIC "-//W3C//DTD SVG 20010904//EN"
 "http://www.w3.org/TR/2001/REC-SVG-20010904/DTD/svg10.dtd">
<svg version="1.0" xmlns="http://www.w3.org/2000/svg"
 width="500.000000pt" height="500.000000pt" viewBox="0 0 500.000000 500.000000"
 preserveAspectRatio="xMidYMid meet">

<g transform="translate(0.000000,500.000000) scale(0.100000,-0.100000)"
fill="#000000" stroke="none">
<path d="M1448 1322 l-38 -3 0 -140 0 -139 45 0 45 0 0 139 c0 77 -3 141 -7
143 -5 2 -25 2 -45 0z"/>
<path d="M1895 1321 c-3 -2 -5 -67 -5 -143 l0 -138 44 0 45 0 3 53 c4 69 25
69 58 0 25 -53 25 -53 73 -53 27 0 47 5 47 11 0 6 -12 30 -26 55 l-26 44 26
31 c33 39 34 82 1 114 -21 22 -34 25 -102 26 -43 1 -91 2 -106 3 -15 1 -30 0
-32 -3z m169 -77 c10 -25 -2 -34 -45 -34 -35 0 -39 3 -39 25 0 22 4 25 39 25
26 0 41 -5 45 -16z"/>
<path d="M2275 1311 c-48 -22 -64 -47 -72 -109 -12 -102 45 -162 152 -162 105
0 163 60 152 158 -12 108 -124 163 -232 113z m120 -65 c28 -20 24 -104 -5
-128 -28 -23 -42 -23 -71 0 -17 15 -22 29 -22 65 0 25 5 53 13 61 15 20 60 21
85 2z"/>
<path d="M2565 1320 c-2 -4 -5 -67 -6 -141 l-1 -134 116 -3 116 -3 0 36 0 35
-70 0 -70 0 0 104 0 104 -41 4 c-22 2 -42 1 -44 -2z"/>
<path d="M2844 1321 c-2 -2 -4 -67 -4 -143 l0 -138 45 0 46 0 -3 141 -3 142
-38 1 c-21 1 -41 -1 -43 -3z"/>
<path d="M2997 1324 c-4 -4 -7 -70 -7 -146 l0 -138 45 0 44 0 3 67 3 66 55
-66 c52 -63 57 -67 98 -67 l42 0 0 140 c0 86 -4 140 -10 141 -5 0 -25 1 -42 2
l-33 1 -3 -62 c-2 -34 -6 -62 -10 -61 -4 0 -29 27 -55 60 -34 41 -56 59 -72
59 -13 0 -30 2 -37 5 -8 3 -17 2 -21 -1z"/>
<path d="M3344 1321 c-2 -2 -4 -67 -4 -143 l0 -138 45 0 c44 0 45 0 45 34 0
25 6 38 25 50 27 18 21 23 72 -61 11 -19 22 -23 63 -23 28 0 50 2 50 5 0 2
-20 38 -45 78 -25 41 -45 79 -45 85 0 5 20 32 45 60 25 28 42 53 38 55 -6 4
-74 2 -103 -2 -3 -1 -25 -26 -50 -57 l-45 -57 -5 58 -5 58 -38 1 c-21 1 -41
-1 -43 -3z"/>
<path d="M1130 1180 l0 -140 120 0 120 0 0 35 0 34 -72 3 -73 3 -3 103 -3 102
-44 0 -45 0 0 -140z"/>
<path d="M1570 1180 l0 -140 109 0 c94 0 112 3 135 21 33 26 36 79 5 110 -18
18 -19 22 -5 32 27 21 29 60 6 90 -21 27 -23 27 -136 27 l-114 0 0 -140z m170
61 c0 -21 -19 -31 -56 -31 -19 0 -24 5 -24 25 0 23 4 25 40 25 33 0 40 -4 40
-19z m-1 -90 c27 -17 4 -41 -39 -41 -32 0 -40 4 -40 18 0 10 3 22 7 25 9 10
55 8 72 -2z"/>
</g>
</svg>
